<svg width="32" height="32" viewBox="0 0 32 32" fill="none" xmlns="http://www.w3.org/2000/svg">
  <!-- Gold tooth shape -->
  <path d="M16 3C19.3 3 22 5.7 22 9V12C22 13.6 21.4 15.1 20.4 16.1L19 17.5C18.1 18.4 17 18.9 16 18.9C15 18.9 13.9 18.4 13 17.5L11.6 16.1C10.6 15.1 10 13.6 10 12V9C10 5.7 12.7 3 16 3Z" fill="url(#goldGradient)"/>

  <!-- Shine effect -->
  <ellipse cx="14" cy="8" rx="1.5" ry="2" fill="rgba(255,255,255,0.4)" transform="rotate(-15 14 8)"/>

  <!-- Crown pattern -->
  <path d="M11.5 6.5L13 5L14.5 6.5L16 5L17.5 6.5L19 5L20.5 6.5V9.5H11.5V6.5Z" fill="url(#crownGradient)"/>

  <!-- Small gems -->
  <circle cx="13" cy="8" r="0.8" fill="#FFE55C"/>
  <circle cx="16" cy="7.5" r="0.8" fill="#FFE55C"/>
  <circle cx="19" cy="8" r="0.8" fill="#FFE55C"/>

  <!-- Root -->
  <path d="M15 19V26C15 27.5 15.7 29 16 29C16.3 29 17 27.5 17 26V19" stroke="url(#rootGradient)" stroke-width="2" fill="none"/>

  <defs>
    <linearGradient id="goldGradient" x1="0%" y1="0%" x2="100%" y2="100%">
      <stop offset="0%" style="stop-color:#FFD700;stop-opacity:1" />
      <stop offset="50%" style="stop-color:#FFA500;stop-opacity:1" />
      <stop offset="100%" style="stop-color:#FF8C00;stop-opacity:1" />
    </linearGradient>
    <linearGradient id="crownGradient" x1="0%" y1="0%" x2="100%" y2="100%">
      <stop offset="0%" style="stop-color:#FFE55C;stop-opacity:1" />
      <stop offset="100%" style="stop-color:#FFD700;stop-opacity:1" />
    </linearGradient>
    <linearGradient id="rootGradient" x1="0%" y1="0%" x2="100%" y2="100%">
      <stop offset="0%" style="stop-color:#DAA520;stop-opacity:1" />
      <stop offset="100%" style="stop-color:#B8860B;stop-opacity:1" />
    </linearGradient>
  </defs>
</svg>