<svg width="40" height="40" viewBox="0 0 40 40" fill="none" xmlns="http://www.w3.org/2000/svg">
  <!-- Gold tooth shape -->
  <path d="M20 4C24.4 4 28 7.6 28 12V16C28 18.2 27.2 20.2 25.8 21.6L24 23.4C22.8 24.6 21.4 25.2 20 25.2C18.6 25.2 17.2 24.6 16 23.4L14.2 21.6C12.8 20.2 12 18.2 12 16V12C12 7.6 15.6 4 20 4Z" fill="url(#goldGradient)"/>

  <!-- Shine effect -->
  <ellipse cx="17" cy="10" rx="2" ry="3" fill="rgba(255,255,255,0.3)" transform="rotate(-15 17 10)"/>

  <!-- Crown pattern -->
  <path d="M14 8L16 6L18 8L20 6L22 8L24 6L26 8V12H14V8Z" fill="url(#crownGradient)"/>

  <!-- Small gems -->
  <circle cx="16" cy="10" r="1" fill="#FFE55C"/>
  <circle cx="20" cy="9" r="1" fill="#FFE55C"/>
  <circle cx="24" cy="10" r="1" fill="#FFE55C"/>

  <!-- Root -->
  <path d="M18 25V32C18 34 18.9 36 20 36C21.1 36 22 34 22 32V25" stroke="url(#rootGradient)" stroke-width="3" fill="none"/>

  <defs>
    <linearGradient id="goldGradient" x1="0%" y1="0%" x2="100%" y2="100%">
      <stop offset="0%" style="stop-color:#FFD700;stop-opacity:1" />
      <stop offset="50%" style="stop-color:#FFA500;stop-opacity:1" />
      <stop offset="100%" style="stop-color:#FF8C00;stop-opacity:1" />
    </linearGradient>
    <linearGradient id="crownGradient" x1="0%" y1="0%" x2="100%" y2="100%">
      <stop offset="0%" style="stop-color:#FFE55C;stop-opacity:1" />
      <stop offset="100%" style="stop-color:#FFD700;stop-opacity:1" />
    </linearGradient>
    <linearGradient id="rootGradient" x1="0%" y1="0%" x2="100%" y2="100%">
      <stop offset="0%" style="stop-color:#DAA520;stop-opacity:1" />
      <stop offset="100%" style="stop-color:#B8860B;stop-opacity:1" />
    </linearGradient>
  </defs>
</svg>